<svg xmlns="http://www.w3.org/2000/svg" xmlns:xlink="http://www.w3.org/1999/xlink" viewBox="0 0 384.09 475.61"><defs><style>.cls-1{fill:#006837;}.cls-2{fill:url(#Orchid);}.cls-3{fill:url(#Orchid-2);}.cls-4{opacity:0.38;}</style><linearGradient id="Orchid" x1="-0.83" y1="117.81" x2="281.7" y2="117.81" gradientTransform="translate(-25.55 73.27) rotate(-22.22)" gradientUnits="userSpaceOnUse"><stop offset="0" stop-color="#ff7bac"/><stop offset="0.22" stop-color="#ff7bac" stop-opacity="0.76"/><stop offset="0.6" stop-color="#ff7bac" stop-opacity="0.36"/><stop offset="0.87" stop-color="#ff7bac" stop-opacity="0.1"/><stop offset="1" stop-color="#ff7bac" stop-opacity="0"/></linearGradient><linearGradient id="Orchid-2" x1="141.42" y1="72.06" x2="423.95" y2="72.06" gradientTransform="translate(-58.22 353.19) rotate(-61.45)" xlink:href="#Orchid"/></defs><g id="Layer_2" data-name="Layer 2"><g id="Layer_1-2" data-name="Layer 1"><g id="flowerfull"><g id="right_leafflower" data-name="right leafflower"><path class="cls-1" d="M213.62,402.61a191.49,191.49,0,0,1-3.73-40.33,171.68,171.68,0,0,1,1.51-20.36c.24-1.69.43-3.38.71-5.07l.93-5,.47-2.53c.17-.84.39-1.67.58-2.5l1.2-5a155.73,155.73,0,0,1,15.63-38.19,194.3,194.3,0,0,1,24.71-33.14,206,206,0,0,1,31-27.79c1.42-1,2.91-2,4.37-3s3-1.9,4.51-2.8c3.06-1.78,6.21-3.47,9.47-5a81.13,81.13,0,0,1,20.82-6.61c7.34-1.18,15.15-1.41,22.76.6a42.26,42.26,0,0,1,10.87,4.4,43.87,43.87,0,0,1,9.06,7.16,50.36,50.36,0,0,1,6.68,8.88,62,62,0,0,1,4.57,9.71,77.87,77.87,0,0,1,4.35,20.25l-1.46.36a120.25,120.25,0,0,0-9-17.59,68.78,68.78,0,0,0-5.65-7.58,48.2,48.2,0,0,0-6.57-6.18c-9.34-7.25-21.07-8.12-32.66-5.3a91,91,0,0,0-17.22,6.1c-2.83,1.3-5.66,2.66-8.42,4.19s-5.55,3.05-8.26,4.74a168.48,168.48,0,0,0-30.56,23.74C245.67,277,230.54,298.9,222.49,323.9a170.82,170.82,0,0,0-7.9,38.62,202.77,202.77,0,0,0,.51,39.86Z"/></g><g id="leftleafflower"><path class="cls-1" d="M218.24,475.38a202.77,202.77,0,0,0,.51-39.86,170.82,170.82,0,0,0-7.9-38.62c-8-25-23.18-46.87-41.76-65.11a168.48,168.48,0,0,0-30.56-23.74c-2.71-1.69-5.48-3.25-8.26-4.74s-5.6-2.89-8.42-4.19a91.12,91.12,0,0,0-17.23-6.1C93,290.2,81.31,291.07,72,298.32a47.63,47.63,0,0,0-6.57,6.18,67.53,67.53,0,0,0-5.65,7.58,120.25,120.25,0,0,0-9,17.59l-1.46-.36a77.87,77.87,0,0,1,4.35-20.25,61.14,61.14,0,0,1,4.57-9.71,50.36,50.36,0,0,1,6.68-8.88,43.61,43.61,0,0,1,9.06-7.16,42.33,42.33,0,0,1,10.86-4.4c7.62-2,15.43-1.78,22.76-.6a81.2,81.2,0,0,1,20.83,6.61c3.26,1.51,6.4,3.2,9.47,5,1.52.9,3,1.81,4.5,2.8s3,1.92,4.38,2.95a206.46,206.46,0,0,1,31,27.79,194.3,194.3,0,0,1,24.71,33.14A155.31,155.31,0,0,1,218,394.77l1.21,5c.19.83.41,1.66.58,2.5l.47,2.53.93,5c.28,1.69.47,3.39.71,5.07a171.68,171.68,0,0,1,1.51,20.36,202.1,202.1,0,0,1-.8,20.31c-.62,6.73-1.65,13.41-2.93,20Z"/></g><path id="flower1" class="cls-2" d="M60.08,113.31C31.11,92.43,28.54,52,48.89,30.38s61.4-21.32,83.8,6.82C138,16.45,155.61,1.52,175.87.11,193.07-1.09,212.69,7.43,221,26c7.94,17.71,3.14,39.14-12.06,52.46,23-15.09,53-11.83,70.81,6.72,16.7,17.41,18.46,43.93,7.71,63.83-11.86,21.93-37.7,33.58-63.12,27.94,3.72,6.68,11.47,22.89,6.79,40.44-8.18,30.72-50.93,52.22-84.95,38-25.85-10.85-42.05-40.4-38-72-.84,1.14-20.45,27-49.78,23.58-25.74-3-50.68-27.48-46.09-54.63C15.72,131.91,35.38,115.06,60.08,113.31Z"/><path id="flower2" class="cls-3" d="M61.23,183.23C25.59,185.38-2,155.65.11,126.07,2.25,96.3,34.19,70.72,69.34,78.35c-9-19.45-4.82-42.13,10-56C91.9,10.51,112.47,4.7,130.64,13.8c17.34,8.69,27.18,28.33,23.83,48.25,8.29-26.24,33.59-42.68,59.1-39.57,24,2.93,42.08,22.35,46.34,44.56,4.69,24.49-8,49.86-31.22,61.57,7.11,2.82,23.36,10.48,30.84,27,13.09,29-6.43,72.67-41.81,83.13-26.88,8-58.12-4.7-75-31.68.08,1.42,1.22,33.82-23.65,49.75-21.81,14-56.62,10.77-70.24-13.17C38.63,225.7,43.21,200.2,61.23,183.23Z"/><g id="stem" class="cls-4"><path class="cls-1" d="M165.37,217.78c1.61,3.42,3.21,6.85,4.77,10.3s3,6.93,4.51,10.42q4.41,10.47,8.47,21.1t7.58,21.46q3.53,10.83,6.66,21.79c2.08,7.31,4.23,14.62,6.18,22A179.78,179.78,0,0,1,208,347.22c1,7.55,1.69,15.15,2,22.77a166,166,0,0,1-.54,22.94l-1.1.12c-2.35-7.33-4.23-14.66-6.05-22s-3.5-14.63-5.12-21.93-3-14.65-4.25-22-2.47-14.79-4.07-22.11-3.3-14.63-5.15-21.91-3.72-14.54-5.78-21.77-4.15-14.47-6.42-21.65q-1.71-5.38-3.5-10.75t-3.62-10.72Z"/></g></g></g></g></svg>